<svg width="31" height="26" viewBox="0 0 31 26" fill="none" xmlns="http://www.w3.org/2000/svg">
<g clip-path="url(#clip0_529_18464)">
<path d="M6.05994 7.57999C5.84994 7.57999 5.68994 7.40999 5.68994 7.20999V4.16999C5.68994 3.95999 5.85994 3.79999 6.05994 3.79999C6.25994 3.79999 6.42994 3.96999 6.42994 4.16999V7.20999C6.42994 7.41999 6.25994 7.57999 6.05994 7.57999Z" fill="white" stroke="white" stroke-width="0.5" stroke-miterlimit="10"/>
<path d="M24.3798 7.57999C24.1698 7.57999 24.0098 7.40999 24.0098 7.20999V4.16999C24.0098 3.95999 24.1798 3.79999 24.3798 3.79999C24.5798 3.79999 24.7498 3.96999 24.7498 4.16999V7.20999C24.7498 7.41999 24.5798 7.57999 24.3798 7.57999Z" fill="white" stroke="white" stroke-width="0.5" stroke-miterlimit="10"/>
<path d="M4.84998 15.28C4.63998 15.28 4.47998 15.11 4.47998 14.91V10.75C4.47998 10.54 4.64998 10.38 4.84998 10.38C5.04998 10.38 5.21998 10.55 5.21998 10.75V14.91C5.21998 15.12 5.04998 15.28 4.84998 15.28Z" fill="white" stroke="white" stroke-width="0.5" stroke-miterlimit="10"/>
<path d="M25.41 15.28C25.2 15.28 25.04 15.11 25.04 14.91V10.75C25.04 10.54 25.21 10.38 25.41 10.38C25.61 10.38 25.78 10.55 25.78 10.75V14.91C25.78 15.12 25.61 15.28 25.41 15.28Z" fill="white" stroke="white" stroke-width="0.5" stroke-miterlimit="10"/>
<path d="M29.8799 25.28H18.6999C18.4899 25.28 18.3299 25.11 18.3299 24.91V22.42C18.3299 20.78 16.9899 19.44 15.3499 19.44C13.7099 19.44 12.3699 20.78 12.3699 22.42V24.91C12.3699 25.12 12.1999 25.28 11.9999 25.28H0.619898C0.499898 25.28 0.389898 25.22 0.319898 25.13C0.249898 25.03 0.229898 24.91 0.269898 24.8L3.5599 14.8C3.6099 14.65 3.7499 14.54 3.9099 14.54H26.5799C26.7399 14.54 26.8799 14.64 26.9299 14.8L30.2199 24.8C30.2599 24.91 30.2399 25.04 30.1699 25.13C30.0999 25.23 29.9899 25.28 29.8699 25.28H29.8799ZM19.0699 24.53H29.3599L26.3099 15.28H4.1799L1.1299 24.53H11.6099V22.41C11.6099 20.36 13.2799 18.68 15.3399 18.68C17.3999 18.68 19.0699 20.35 19.0699 22.41V24.53Z" fill="white" stroke="white" stroke-width="0.5" stroke-miterlimit="10"/>
<path d="M7.82006 18.18H5.18006C4.97006 18.18 4.81006 18.01 4.81006 17.81C4.81006 17.61 4.98006 17.44 5.18006 17.44H7.82006C8.03006 17.44 8.19006 17.61 8.19006 17.81C8.19006 18.01 8.02006 18.18 7.82006 18.18Z" fill="white" stroke="white" stroke-width="0.5" stroke-miterlimit="10"/>
<path d="M10.3402 20.27H7.8202C7.6102 20.27 7.4502 20.1 7.4502 19.9C7.4502 19.7 7.6202 19.53 7.8202 19.53H10.3402C10.5502 19.53 10.7102 19.7 10.7102 19.9C10.7102 20.1 10.5402 20.27 10.3402 20.27Z" fill="white" stroke="white" stroke-width="0.5" stroke-miterlimit="10"/>
<path d="M6.49994 21.87H4.55994C4.34994 21.87 4.18994 21.7 4.18994 21.5C4.18994 21.3 4.35994 21.13 4.55994 21.13H6.49994C6.70994 21.13 6.86994 21.3 6.86994 21.5C6.86994 21.7 6.69994 21.87 6.49994 21.87Z" fill="white" stroke="white" stroke-width="0.5" stroke-miterlimit="10"/>
<path d="M25.56 21.87H23.62C23.41 21.87 23.25 21.7 23.25 21.5C23.25 21.3 23.42 21.13 23.62 21.13H25.56C25.77 21.13 25.93 21.3 25.93 21.5C25.93 21.7 25.76 21.87 25.56 21.87Z" fill="white" stroke="white" stroke-width="0.5" stroke-miterlimit="10"/>
<path d="M20.54 17.49H16.66C16.45 17.49 16.29 17.32 16.29 17.12C16.29 16.92 16.46 16.75 16.66 16.75H20.54C20.75 16.75 20.91 16.92 20.91 17.12C20.91 17.32 20.74 17.49 20.54 17.49Z" fill="white" stroke="white" stroke-width="0.5" stroke-miterlimit="10"/>
<path d="M25.9102 19.64H22.0302C21.8202 19.64 21.6602 19.47 21.6602 19.27C21.6602 19.07 21.8302 18.9 22.0302 18.9H25.9102C26.1202 18.9 26.2802 19.07 26.2802 19.27C26.2802 19.47 26.1102 19.64 25.9102 19.64Z" fill="white" stroke="white" stroke-width="0.5" stroke-miterlimit="10"/>
<path d="M22.3299 23.08H20.5399C20.3299 23.08 20.1699 22.91 20.1699 22.71C20.1699 22.51 20.3399 22.34 20.5399 22.34H22.3299C22.5399 22.34 22.6999 22.51 22.6999 22.71C22.6999 22.91 22.5299 23.08 22.3299 23.08Z" fill="white" stroke="white" stroke-width="0.5" stroke-miterlimit="10"/>
<path d="M15.7299 5.24001C12.5599 5.24001 8.66994 5 4.36994 4.22001C4.20994 4.19001 4.08994 4.07001 4.06994 3.91001C4.04994 3.75001 4.12994 3.60001 4.26994 3.52001C4.26994 3.52001 6.15994 2.52001 6.74994 0.520005C6.79994 0.330005 6.98994 0.220005 7.17994 0.260005C7.24994 0.270005 13.8299 1.57001 23.5199 0.260005C23.6999 0.240005 23.8799 0.350005 23.9299 0.520005C24.5199 2.53001 26.3899 3.51001 26.4099 3.52001C26.5499 3.59001 26.6299 3.74001 26.6099 3.89001C26.5899 4.04001 26.4799 4.17001 26.3299 4.21001C26.2299 4.23001 23.9599 4.8 20.0899 5.08001C18.8599 5.17001 17.3899 5.24001 15.7199 5.24001H15.7299ZM5.41994 3.64001C11.4899 4.65001 16.6799 4.59001 20.0199 4.34001C22.4699 4.16001 24.2999 3.86001 25.2899 3.67001C24.6499 3.17001 23.7699 2.31001 23.3099 1.04001C20.1499 1.45001 17.3199 1.59001 14.9399 1.59001C10.9699 1.59001 8.25994 1.20001 7.35994 1.05001C6.89994 2.29001 6.04994 3.14001 5.41994 3.64001Z" fill="white" stroke="white" stroke-width="0.5" stroke-miterlimit="10"/>
<path d="M15.1102 11.82C11.6102 11.82 7.46023 11.58 3.17023 10.8C3.01023 10.77 2.89023 10.65 2.87023 10.49C2.85023 10.33 2.93023 10.18 3.07023 10.1C3.07023 10.1 4.96023 9.09999 5.55023 7.09999C5.60023 6.91999 5.78023 6.80999 5.97023 6.83999C6.06023 6.85999 15.3702 8.38999 24.5402 6.83999C24.7302 6.80999 24.9102 6.91999 24.9602 7.09999C25.5502 9.09999 27.4302 10.09 27.4402 10.1C27.5802 10.17 27.6602 10.33 27.6402 10.48C27.6202 10.64 27.5002 10.76 27.3402 10.79C27.3102 10.79 24.4102 11.37 20.0002 11.66C18.6002 11.75 16.9402 11.82 15.1002 11.82H15.1102ZM4.22023 10.22C10.3502 11.23 16.1202 11.17 19.9502 10.92C22.8702 10.73 25.1202 10.41 26.3002 10.22C25.6602 9.71999 24.8102 8.85999 24.3602 7.61999C16.1202 8.94999 7.87023 7.86999 6.17023 7.61999C5.72023 8.85999 4.86023 9.71999 4.23023 10.22H4.22023Z" fill="white" stroke="white" stroke-width="0.5" stroke-miterlimit="10"/>
</g>
<defs>
<clipPath id="clip0_529_18464">
<rect width="30.5" height="25.53" fill="white"/>
</clipPath>
</defs>
</svg>
