<svg width="31" height="31" viewBox="0 0 31 31" fill="none" xmlns="http://www.w3.org/2000/svg">
<g clip-path="url(#clip0_529_18748)">
<path d="M15.2502 3.29999C14.4102 3.29999 13.7202 2.61999 13.7202 1.76999C13.7202 0.91999 14.4002 0.23999 15.2502 0.23999C16.1002 0.23999 16.7802 0.91999 16.7802 1.76999C16.7802 2.61999 16.1002 3.29999 15.2502 3.29999ZM15.2502 0.96999C14.8102 0.96999 14.4502 1.32999 14.4502 1.76999C14.4502 2.20999 14.8102 2.56999 15.2502 2.56999C15.6902 2.56999 16.0502 2.20999 16.0502 1.76999C16.0502 1.32999 15.6902 0.96999 15.2502 0.96999Z" fill="white" stroke="white" stroke-width="0.5" stroke-miterlimit="10"/>
<path d="M15.2502 30.24C14.4102 30.24 13.7202 29.56 13.7202 28.71C13.7202 27.86 14.4002 27.18 15.2502 27.18C16.1002 27.18 16.7802 27.86 16.7802 28.71C16.7802 29.56 16.1002 30.24 15.2502 30.24ZM15.2502 27.91C14.8102 27.91 14.4502 28.27 14.4502 28.71C14.4502 29.15 14.8102 29.51 15.2502 29.51C15.6902 29.51 16.0502 29.15 16.0502 28.71C16.0502 28.27 15.6902 27.91 15.2502 27.91Z" fill="white" stroke="white" stroke-width="0.5" stroke-miterlimit="10"/>
<path d="M28.7199 16.78C27.8799 16.78 27.1899 16.1 27.1899 15.25C27.1899 14.4 27.8699 13.72 28.7199 13.72C29.5699 13.72 30.2499 14.4 30.2499 15.25C30.2499 16.1 29.5699 16.78 28.7199 16.78ZM28.7199 14.45C28.2799 14.45 27.9199 14.81 27.9199 15.25C27.9199 15.69 28.2799 16.05 28.7199 16.05C29.1599 16.05 29.5199 15.69 29.5199 15.25C29.5199 14.81 29.1599 14.45 28.7199 14.45Z" fill="white" stroke="white" stroke-width="0.5" stroke-miterlimit="10"/>
<path d="M1.78 16.78C0.94 16.78 0.25 16.1 0.25 15.25C0.25 14.4 0.93 13.72 1.78 13.72C2.63 13.72 3.31 14.4 3.31 15.25C3.31 16.1 2.63 16.78 1.78 16.78ZM1.78 14.45C1.34 14.45 0.98 14.81 0.98 15.25C0.98 15.69 1.34 16.05 1.78 16.05C2.22 16.05 2.58 15.69 2.58 15.25C2.58 14.81 2.22 14.45 1.78 14.45Z" fill="white" stroke="white" stroke-width="0.5" stroke-miterlimit="10"/>
<path d="M10.2235 9.90232L9.93359 10.1922L13.7166 13.9753L14.0065 13.6853L10.2235 9.90232Z" fill="white" stroke="white" stroke-width="0.5" stroke-miterlimit="10"/>
<path d="M16.7806 16.4623L16.4907 16.7522L20.2737 20.5352L20.5637 20.2453L16.7806 16.4623Z" fill="white" stroke="white" stroke-width="0.5" stroke-miterlimit="10"/>
<path d="M20.2752 9.90369L16.4922 13.6867L16.7821 13.9766L20.5651 10.1936L20.2752 9.90369Z" fill="white" stroke="white" stroke-width="0.5" stroke-miterlimit="10"/>
<path d="M13.722 16.4539L9.93896 20.2369L10.2289 20.5268L14.0119 16.7438L13.722 16.4539Z" fill="white" stroke="white" stroke-width="0.5" stroke-miterlimit="10"/>
<path d="M15.6101 4.19H14.8901V13.57H15.6101V4.19Z" fill="white" stroke="white" stroke-width="0.5" stroke-miterlimit="10"/>
<path d="M15.6101 16.85H14.8901V26.23H15.6101V16.85Z" fill="white" stroke="white" stroke-width="0.5" stroke-miterlimit="10"/>
<path d="M26.2701 14.85H16.8901V15.57H26.2701V14.85Z" fill="white" stroke="white" stroke-width="0.5" stroke-miterlimit="10"/>
<path d="M13.61 14.85H4.22998V15.57H13.61V14.85Z" fill="white" stroke="white" stroke-width="0.5" stroke-miterlimit="10"/>
<path d="M15.2502 3.29999C14.4102 3.29999 13.7202 2.61999 13.7202 1.76999C13.7202 0.91999 14.4002 0.23999 15.2502 0.23999C16.1002 0.23999 16.7802 0.91999 16.7802 1.76999C16.7802 2.61999 16.1002 3.29999 15.2502 3.29999ZM15.2502 0.96999C14.8102 0.96999 14.4502 1.32999 14.4502 1.76999C14.4502 2.20999 14.8102 2.56999 15.2502 2.56999C15.6902 2.56999 16.0502 2.20999 16.0502 1.76999C16.0502 1.32999 15.6902 0.96999 15.2502 0.96999Z" fill="white" stroke="white" stroke-width="0.5" stroke-miterlimit="10"/>
<path d="M15.2502 30.24C14.4102 30.24 13.7202 29.56 13.7202 28.71C13.7202 27.86 14.4002 27.18 15.2502 27.18C16.1002 27.18 16.7802 27.86 16.7802 28.71C16.7802 29.56 16.1002 30.24 15.2502 30.24ZM15.2502 27.91C14.8102 27.91 14.4502 28.27 14.4502 28.71C14.4502 29.15 14.8102 29.51 15.2502 29.51C15.6902 29.51 16.0502 29.15 16.0502 28.71C16.0502 28.27 15.6902 27.91 15.2502 27.91Z" fill="white" stroke="white" stroke-width="0.5" stroke-miterlimit="10"/>
<path d="M28.7199 16.78C27.8799 16.78 27.1899 16.1 27.1899 15.25C27.1899 14.4 27.8699 13.72 28.7199 13.72C29.5699 13.72 30.2499 14.4 30.2499 15.25C30.2499 16.1 29.5699 16.78 28.7199 16.78ZM28.7199 14.45C28.2799 14.45 27.9199 14.81 27.9199 15.25C27.9199 15.69 28.2799 16.05 28.7199 16.05C29.1599 16.05 29.5199 15.69 29.5199 15.25C29.5199 14.81 29.1599 14.45 28.7199 14.45Z" fill="white" stroke="white" stroke-width="0.5" stroke-miterlimit="10"/>
<path d="M1.78 16.78C0.94 16.78 0.25 16.1 0.25 15.25C0.25 14.4 0.93 13.72 1.78 13.72C2.63 13.72 3.31 14.4 3.31 15.25C3.31 16.1 2.63 16.78 1.78 16.78ZM1.78 14.45C1.34 14.45 0.98 14.81 0.98 15.25C0.98 15.69 1.34 16.05 1.78 16.05C2.22 16.05 2.58 15.69 2.58 15.25C2.58 14.81 2.22 14.45 1.78 14.45Z" fill="white" stroke="white" stroke-width="0.5" stroke-miterlimit="10"/>
<path d="M21.54 8.94999C21.1 8.50999 21.1 7.78999 21.54 7.33999C21.98 6.88999 22.7 6.89999 23.15 7.33999C23.6 7.77999 23.59 8.49999 23.15 8.94999C22.71 9.39999 21.99 9.38999 21.54 8.94999ZM22.77 7.71999C22.54 7.48999 22.16 7.48999 21.92 7.71999C21.68 7.94999 21.69 8.32999 21.92 8.56999C22.15 8.80999 22.53 8.79999 22.77 8.56999C23.01 8.33999 23 7.95999 22.77 7.71999Z" fill="white" stroke="white" stroke-width="0.5" stroke-miterlimit="10"/>
<path d="M7.35002 23.15C6.91002 22.71 6.91002 21.99 7.35002 21.54C7.79002 21.09 8.51002 21.1 8.96002 21.54C9.41002 21.98 9.40002 22.7 8.96002 23.15C8.52002 23.6 7.80002 23.59 7.35002 23.15ZM8.58002 21.92C8.35002 21.69 7.97002 21.69 7.73002 21.92C7.49002 22.15 7.50002 22.53 7.73002 22.77C7.96002 23.01 8.34002 23 8.58002 22.77C8.82002 22.54 8.81002 22.16 8.58002 21.92Z" fill="white" stroke="white" stroke-width="0.5" stroke-miterlimit="10"/>
<path d="M21.54 23.15C21.1 22.71 21.1 21.99 21.54 21.54C21.98 21.09 22.7 21.1 23.15 21.54C23.6 21.98 23.59 22.7 23.15 23.15C22.71 23.6 21.99 23.59 21.54 23.15ZM22.77 21.92C22.54 21.69 22.16 21.69 21.92 21.92C21.68 22.15 21.69 22.53 21.92 22.77C22.15 23.01 22.53 23 22.77 22.77C23.01 22.54 23 22.16 22.77 21.92Z" fill="white" stroke="white" stroke-width="0.5" stroke-miterlimit="10"/>
<path d="M7.33977 8.94999C6.89977 8.50999 6.89977 7.78999 7.33977 7.33999C7.77977 6.88999 8.49977 6.89999 8.94977 7.33999C9.39977 7.77999 9.38977 8.49999 8.94977 8.94999C8.50977 9.39999 7.78977 9.38999 7.33977 8.94999ZM8.56977 7.71999C8.33977 7.48999 7.95977 7.48999 7.71977 7.71999C7.47977 7.94999 7.48977 8.32999 7.71977 8.56999C7.94977 8.80999 8.32977 8.79999 8.56977 8.56999C8.80977 8.33999 8.79977 7.95999 8.56977 7.71999Z" fill="white" stroke="white" stroke-width="0.5" stroke-miterlimit="10"/>
<path d="M21.54 8.94999C21.1 8.50999 21.1 7.78999 21.54 7.33999C21.98 6.88999 22.7 6.89999 23.15 7.33999C23.6 7.77999 23.59 8.49999 23.15 8.94999C22.71 9.39999 21.99 9.38999 21.54 8.94999ZM22.77 7.71999C22.54 7.48999 22.16 7.48999 21.92 7.71999C21.68 7.94999 21.69 8.32999 21.92 8.56999C22.15 8.80999 22.53 8.79999 22.77 8.56999C23.01 8.33999 23 7.95999 22.77 7.71999Z" fill="white" stroke="white" stroke-width="0.5" stroke-miterlimit="10"/>
<path d="M7.35002 23.15C6.91002 22.71 6.91002 21.99 7.35002 21.54C7.79002 21.09 8.51002 21.1 8.96002 21.54C9.41002 21.98 9.40002 22.7 8.96002 23.15C8.52002 23.6 7.80002 23.59 7.35002 23.15ZM8.58002 21.92C8.35002 21.69 7.97002 21.69 7.73002 21.92C7.49002 22.15 7.50002 22.53 7.73002 22.77C7.96002 23.01 8.34002 23 8.58002 22.77C8.82002 22.54 8.81002 22.16 8.58002 21.92Z" fill="white" stroke="white" stroke-width="0.5" stroke-miterlimit="10"/>
<path d="M21.54 23.15C21.1 22.71 21.1 21.99 21.54 21.54C21.98 21.09 22.7 21.1 23.15 21.54C23.6 21.98 23.59 22.7 23.15 23.15C22.71 23.6 21.99 23.59 21.54 23.15ZM22.77 21.92C22.54 21.69 22.16 21.69 21.92 21.92C21.68 22.15 21.69 22.53 21.92 22.77C22.15 23.01 22.53 23 22.77 22.77C23.01 22.54 23 22.16 22.77 21.92Z" fill="white" stroke="white" stroke-width="0.5" stroke-miterlimit="10"/>
<path d="M7.33977 8.94999C6.89977 8.50999 6.89977 7.78999 7.33977 7.33999C7.77977 6.88999 8.49977 6.89999 8.94977 7.33999C9.39977 7.77999 9.38977 8.49999 8.94977 8.94999C8.50977 9.39999 7.78977 9.38999 7.33977 8.94999ZM8.56977 7.71999C8.33977 7.48999 7.95977 7.48999 7.71977 7.71999C7.47977 7.94999 7.48977 8.32999 7.71977 8.56999C7.94977 8.80999 8.32977 8.79999 8.56977 8.56999C8.80977 8.33999 8.79977 7.95999 8.56977 7.71999Z" fill="white" stroke="white" stroke-width="0.5" stroke-miterlimit="10"/>
</g>
<defs>
<clipPath id="clip0_529_18748">
<rect width="30.5" height="30.49" fill="white"/>
</clipPath>
</defs>
</svg>
