<svg width="29" height="30" viewBox="0 0 29 30" fill="none" xmlns="http://www.w3.org/2000/svg">
<g clip-path="url(#clip0_529_18731)">
<path d="M3.23003 9.21C3.12003 9.21 3.01003 9.16 2.94003 9.06999C2.82003 8.91 2.85003 8.68999 3.01003 8.56999L14.01 0.319995C14.14 0.219995 14.31 0.219995 14.44 0.319995L25.43 8.56999C25.59 8.68999 25.62 8.91 25.5 9.06999C25.38 9.22999 25.16 9.26 25 9.14L14.22 1.05L3.45003 9.14C3.39003 9.19 3.31003 9.21 3.24003 9.21H3.23003Z" fill="white" stroke="white" stroke-width="0.5" stroke-miterlimit="10"/>
<path d="M16.3102 5.70001C16.2402 5.70001 16.1602 5.68001 16.1002 5.63001L14.2202 4.22001L12.3502 5.63001C12.1902 5.75001 11.9702 5.72001 11.8502 5.56001C11.7302 5.40001 11.7602 5.18001 11.9202 5.06001L14.0102 3.49001C14.1402 3.39001 14.3102 3.39001 14.4402 3.49001L16.5302 5.06001C16.6902 5.18001 16.7202 5.40001 16.6002 5.56001C16.5302 5.65001 16.4202 5.70001 16.3102 5.70001Z" fill="white" stroke="white" stroke-width="0.5" stroke-miterlimit="10"/>
<path d="M27.2501 11.86H1.25014C1.05014 11.86 0.890137 11.7 0.890137 11.5V8.84999C0.890137 8.64999 1.05014 8.48999 1.25014 8.48999H27.2501C27.4501 8.48999 27.6101 8.64999 27.6101 8.84999V11.5C27.6101 11.7 27.4501 11.86 27.2501 11.86ZM1.60014 11.15H26.8901V9.21999H1.61014V11.15H1.60014Z" fill="white" stroke="white" stroke-width="0.5" stroke-miterlimit="10"/>
<path d="M6.44986 14.11H2.21986C2.01986 14.11 1.85986 13.95 1.85986 13.75V11.5C1.85986 11.3 2.01986 11.14 2.21986 11.14H6.44986C6.64986 11.14 6.80986 11.3 6.80986 11.5V13.75C6.80986 13.95 6.64986 14.11 6.44986 14.11ZM2.56986 13.4H6.08986V11.86H2.56986V13.4Z" fill="white" stroke="white" stroke-width="0.5" stroke-miterlimit="10"/>
<path d="M6.44986 27.04H2.21986C2.01986 27.04 1.85986 26.88 1.85986 26.68V24.43C1.85986 24.23 2.01986 24.07 2.21986 24.07H6.44986C6.64986 24.07 6.80986 24.23 6.80986 24.43V26.68C6.80986 26.88 6.64986 27.04 6.44986 27.04ZM2.56986 26.33H6.08986V24.79H2.56986V26.33Z" fill="white" stroke="white" stroke-width="0.5" stroke-miterlimit="10"/>
<path d="M5.96984 24.78H2.69984C2.49984 24.78 2.33984 24.62 2.33984 24.42V13.75C2.33984 13.55 2.49984 13.39 2.69984 13.39H5.96984C6.16984 13.39 6.32984 13.55 6.32984 13.75V24.42C6.32984 24.62 6.16984 24.78 5.96984 24.78ZM3.05984 24.07H5.61984V14.11H3.05984V24.07Z" fill="white" stroke="white" stroke-width="0.5" stroke-miterlimit="10"/>
<path d="M16.3698 14.11H12.1398C11.9398 14.11 11.7798 13.95 11.7798 13.75V11.5C11.7798 11.3 11.9398 11.14 12.1398 11.14H16.3698C16.5698 11.14 16.7298 11.3 16.7298 11.5V13.75C16.7298 13.95 16.5698 14.11 16.3698 14.11ZM12.4898 13.4H16.0098V11.86H12.4898V13.4Z" fill="white" stroke="white" stroke-width="0.5" stroke-miterlimit="10"/>
<path d="M16.3698 27.04H12.1398C11.9398 27.04 11.7798 26.88 11.7798 26.68V24.43C11.7798 24.23 11.9398 24.07 12.1398 24.07H16.3698C16.5698 24.07 16.7298 24.23 16.7298 24.43V26.68C16.7298 26.88 16.5698 27.04 16.3698 27.04ZM12.4898 26.33H16.0098V24.79H12.4898V26.33Z" fill="white" stroke="white" stroke-width="0.5" stroke-miterlimit="10"/>
<path d="M15.88 24.78H12.61C12.41 24.78 12.25 24.62 12.25 24.42V13.75C12.25 13.55 12.41 13.39 12.61 13.39H15.88C16.08 13.39 16.24 13.55 16.24 13.75V24.42C16.24 24.62 16.08 24.78 15.88 24.78ZM12.97 24.07H15.53V14.11H12.97V24.07Z" fill="white" stroke="white" stroke-width="0.5" stroke-miterlimit="10"/>
<path d="M26.2799 14.11H22.0499C21.8499 14.11 21.6899 13.95 21.6899 13.75V11.5C21.6899 11.3 21.8499 11.14 22.0499 11.14H26.2799C26.4799 11.14 26.6399 11.3 26.6399 11.5V13.75C26.6399 13.95 26.4799 14.11 26.2799 14.11ZM22.3999 13.4H25.9199V11.86H22.3999V13.4Z" fill="white" stroke="white" stroke-width="0.5" stroke-miterlimit="10"/>
<path d="M26.2799 27.04H22.0499C21.8499 27.04 21.6899 26.88 21.6899 26.68V24.43C21.6899 24.23 21.8499 24.07 22.0499 24.07H26.2799C26.4799 24.07 26.6399 24.23 26.6399 24.43V26.68C26.6399 26.88 26.4799 27.04 26.2799 27.04ZM22.3999 26.33H25.9199V24.79H22.3999V26.33Z" fill="white" stroke="white" stroke-width="0.5" stroke-miterlimit="10"/>
<path d="M25.7999 24.78H22.5299C22.3299 24.78 22.1699 24.62 22.1699 24.42V13.75C22.1699 13.55 22.3299 13.39 22.5299 13.39H25.7999C25.9999 13.39 26.1599 13.55 26.1599 13.75V24.42C26.1599 24.62 25.9999 24.78 25.7999 24.78ZM22.8899 24.07H25.4499V14.11H22.8899V24.07Z" fill="white" stroke="white" stroke-width="0.5" stroke-miterlimit="10"/>
<path d="M27.89 29.59H0.61C0.41 29.59 0.25 29.43 0.25 29.23V26.68C0.25 26.48 0.41 26.32 0.61 26.32H27.9C28.1 26.32 28.26 26.48 28.26 26.68V29.23C28.26 29.43 28.1 29.59 27.9 29.59H27.89ZM0.96 28.88H27.53V27.04H0.96V28.88Z" fill="white" stroke="white" stroke-width="0.5" stroke-miterlimit="10"/>
</g>
<defs>
<clipPath id="clip0_529_18731">
<rect width="28.5" height="29.84" fill="white"/>
</clipPath>
</defs>
</svg>
