<svg width="21" height="28" viewBox="0 0 21 28" fill="none" xmlns="http://www.w3.org/2000/svg">
<g clip-path="url(#clip0_529_18776)">
<path d="M19.9198 5.52H0.579765C0.449765 5.52 0.329765 5.44 0.279765 5.32C0.229765 5.2 0.249765 5.06 0.349765 4.96L2.06976 3.19V1.51C2.06976 0.81 2.63976 0.25 3.32976 0.25H17.1798C17.8798 0.25 18.4398 0.82 18.4398 1.51V3.19L20.1598 4.96C20.2498 5.06 20.2798 5.2 20.2298 5.32C20.1798 5.44 20.0598 5.52 19.9298 5.52H19.9198ZM1.35976 4.87H19.1398L17.8698 3.56C17.8098 3.5 17.7798 3.42 17.7798 3.33V1.52C17.7798 1.19 17.5098 0.92 17.1798 0.92H3.32976C2.99976 0.92 2.72976 1.19 2.72976 1.52V3.33C2.72976 3.42 2.69976 3.5 2.63976 3.56L1.36976 4.87H1.35976Z" fill="white" stroke="white" stroke-width="0.5" stroke-miterlimit="10"/>
<path d="M15.2399 27.45H5.25994C4.62994 27.45 4.09994 26.98 4.00994 26.36L1.01994 5.24001C0.989939 5.06001 1.11994 4.89001 1.29994 4.87001C1.47994 4.84001 1.64994 4.97001 1.66994 5.15001L4.65994 26.27C4.69994 26.57 4.95994 26.79 5.25994 26.79H15.2299C15.5299 26.79 15.7899 26.57 15.8299 26.27L18.8199 5.15001C18.8499 4.97001 19.0099 4.84001 19.1899 4.87001C19.3699 4.90001 19.4999 5.06001 19.4699 5.24001L16.4799 26.36C16.3899 26.98 15.8499 27.45 15.2299 27.45H15.2399Z" fill="white" stroke="white" stroke-width="0.5" stroke-miterlimit="10"/>
<path d="M10 19.83C9.7 19.83 9.39 19.79 9.09 19.71C6.95 19.15 5.73 16.7 6.37 14.26C7.01 11.81 9.27 10.28 11.41 10.84C13.55 11.4 14.77 13.85 14.13 16.29C13.82 17.47 13.13 18.47 12.19 19.12C11.51 19.59 10.75 19.83 9.99 19.83H10ZM10.52 11.39C8.97 11.39 7.49 12.62 7.02 14.43C6.47 16.52 7.48 18.61 9.27 19.08C10.13 19.3 11.04 19.13 11.83 18.58C12.64 18.02 13.24 17.15 13.5 16.13C14.05 14.04 13.04 11.95 11.25 11.48C11.01 11.42 10.76 11.39 10.52 11.39Z" fill="white" stroke="white" stroke-width="0.5" stroke-miterlimit="10"/>
<path d="M9.22004 19.75C9.16004 19.75 9.10004 19.73 9.04004 19.7C8.89004 19.6 8.85004 19.4 8.95004 19.24C9.01004 19.16 9.06004 19.07 9.11004 18.99C9.74004 18.05 10.24 17.3 9.92004 15.32C9.64004 13.6 10.21 12.54 10.71 11.59C10.82 11.39 10.92 11.19 11.01 11C11.09 10.84 11.28 10.76 11.45 10.84C11.61 10.92 11.69 11.11 11.61 11.28C11.51 11.49 11.4 11.7 11.29 11.9C10.82 12.79 10.33 13.71 10.57 15.21C10.93 17.45 10.31 18.37 9.65004 19.35C9.60004 19.43 9.54004 19.51 9.49004 19.59C9.43004 19.69 9.32004 19.74 9.21004 19.74L9.22004 19.75Z" fill="white" stroke="white" stroke-width="0.5" stroke-miterlimit="10"/>
</g>
<defs>
<clipPath id="clip0_529_18776">
<rect width="20.5" height="27.7" fill="white"/>
</clipPath>
</defs>
</svg>
